{
    "asset" : {
        "generator" : "Khronos glTF Blender I/O v3.4.49",
        "version" : "2.0"
    },
    "scene" : 0,
    "scenes" : [
        {
            "name" : "Scene",
            "nodes" : [
                0
            ]
        }
    ],
    "nodes" : [
        {
            "mesh" : 0,
            "name" : "character_mageBody"
        }
    ],
    "materials" : [
        {
            "doubleSided" : true,
            "name" : "PurpleDark.001",
            "pbrMetallicRoughness" : {
                "baseColorFactor" : [
                    0.06480327248573303,
                    0.05780543386936188,
                    0.16513223946094513,
                    1
                ],
                "metallicFactor" : 0,
                "roughnessFactor" : 0.4000000059604645
            }
        },
        {
            "doubleSided" : true,
            "name" : "Purple.001",
            "pbrMetallicRoughness" : {
                "baseColorFactor" : [
                    0.2597089111804962,
                    0.052060261368751526,
                    0.5798950791358948,
                    1
                ],
                "metallicFactor" : 0,
                "roughnessFactor" : 0.20000000298023224
            }
        },
        {
            "name" : "Metal.001",
            "pbrMetallicRoughness" : {
                "baseColorFactor" : [
                    0.40126433968544006,
                    0.47849249839782715,
                    0.5173344612121582,
                    1
                ],
                "metallicFactor" : 0.20000000298023224,
                "roughnessFactor" : 0.30000001192092896
            }
        },
        {
            "name" : "BrownDark.001",
            "pbrMetallicRoughness" : {
                "baseColorFactor" : [
                    0.32694560289382935,
                    0.10152623057365417,
                    0.05927089974284172,
                    1
                ],
                "metallicFactor" : 0,
                "roughnessFactor" : 0.4000000059604645
            }
        },
        {
            "doubleSided" : true,
            "name" : "WoodDark.001",
            "pbrMetallicRoughness" : {
                "baseColorFactor" : [
                    0.15377813577651978,
                    0.11656659096479416,
                    0.10591226816177368,
                    1
                ],
                "metallicFactor" : 0,
                "roughnessFactor" : 0.4000000059604645
            }
        },
        {
            "doubleSided" : true,
            "name" : "PinkLight.001",
            "pbrMetallicRoughness" : {
                "baseColorFactor" : [
                    0.9215819239616394,
                    0.5271151065826416,
                    0.33245164155960083,
                    1
                ],
                "metallicFactor" : 0,
                "roughnessFactor" : 0.5
            }
        },
        {
            "name" : "Black.001",
            "pbrMetallicRoughness" : {
                "baseColorFactor" : [
                    0.019794002175331116,
                    0.03207586705684662,
                    0.037408243864774704,
                    1
                ],
                "metallicFactor" : 0,
                "roughnessFactor" : 0.5
            }
        },
        {
            "name" : "Red.001",
            "pbrMetallicRoughness" : {
                "baseColorFactor" : [
                    1,
                    0.02505292184650898,
                    0.11802464723587036,
                    1
                ],
                "metallicFactor" : 0,
                "roughnessFactor" : 0.20000000298023224
            }
        }
    ],
    "meshes" : [
        {
            "name" : "Cube.002",
            "primitives" : [
                {
                    "attributes" : {
                        "POSITION" : 0,
                        "TEXCOORD_0" : 1,
                        "NORMAL" : 2
                    },
                    "indices" : 3,
                    "material" : 0
                },
                {
                    "attributes" : {
                        "POSITION" : 4,
                        "TEXCOORD_0" : 5,
                        "NORMAL" : 6
                    },
                    "indices" : 7,
                    "material" : 1
                },
                {
                    "attributes" : {
                        "POSITION" : 8,
                        "TEXCOORD_0" : 9,
                        "NORMAL" : 10
                    },
                    "indices" : 11,
                    "material" : 2
                },
                {
                    "attributes" : {
                        "POSITION" : 12,
                        "TEXCOORD_0" : 13,
                        "NORMAL" : 14
                    },
                    "indices" : 15,
                    "material" : 3
                },
                {
                    "attributes" : {
                        "POSITION" : 16,
                        "TEXCOORD_0" : 17,
                        "NORMAL" : 18
                    },
                    "indices" : 19,
                    "material" : 4
                },
                {
                    "attributes" : {
                        "POSITION" : 20,
                        "TEXCOORD_0" : 21,
                        "NORMAL" : 22
                    },
                    "indices" : 23,
                    "material" : 5
                },
                {
                    "attributes" : {
                        "POSITION" : 24,
                        "TEXCOORD_0" : 25,
                        "NORMAL" : 26
                    },
                    "indices" : 27,
                    "material" : 6
                },
                {
                    "attributes" : {
                        "POSITION" : 28,
                        "TEXCOORD_0" : 29,
                        "NORMAL" : 30
                    },
                    "indices" : 31,
                    "material" : 7
                }
            ]
        }
    ],
    "accessors" : [
        {
            "bufferView" : 0,
            "componentType" : 5126,
            "count" : 894,
            "max" : [
                1.0495288372039795,
                2.4369218349456787,
                1.0202375650405884
            ],
            "min" : [
                -1.04952871799469,
                0.07151437550783157,
                -1.0266629457473755
            ],
            "type" : "VEC3"
        },
        {
            "bufferView" : 1,
            "componentType" : 5126,
            "count" : 894,
            "type" : "VEC2"
        },
        {
            "bufferView" : 2,
            "componentType" : 5126,
            "count" : 894,
            "type" : "VEC3"
        },
        {
            "bufferView" : 3,
            "componentType" : 5123,
            "count" : 3417,
            "type" : "SCALAR"
        },
        {
            "bufferView" : 4,
            "componentType" : 5126,
            "count" : 24,
            "max" : [
                0.047613903880119324,
                0.6144547462463379,
                0.27916380763053894
            ],
            "min" : [
                -0.0476139597594738,
                0.532245934009552,
                0.22087320685386658
            ],
            "type" : "VEC3"
        },
        {
            "bufferView" : 5,
            "componentType" : 5126,
            "count" : 24,
            "type" : "VEC2"
        },
        {
            "bufferView" : 6,
            "componentType" : 5126,
            "count" : 24,
            "type" : "VEC3"
        },
        {
            "bufferView" : 7,
            "componentType" : 5123,
            "count" : 102,
            "type" : "SCALAR"
        },
        {
            "bufferView" : 8,
            "componentType" : 5126,
            "count" : 501,
            "max" : [
                0.49234727025032043,
                1.8862054347991943,
                0.49273309111595154
            ],
            "min" : [
                -0.49234846234321594,
                0.01089969277381897,
                -0.40517786145210266
            ],
            "type" : "VEC3"
        },
        {
            "bufferView" : 9,
            "componentType" : 5126,
            "count" : 501,
            "type" : "VEC2"
        },
        {
            "bufferView" : 10,
            "componentType" : 5126,
            "count" : 501,
            "type" : "VEC3"
        },
        {
            "bufferView" : 11,
            "componentType" : 5123,
            "count" : 1938,
            "type" : "SCALAR"
        },
        {
            "bufferView" : 12,
            "componentType" : 5126,
            "count" : 180,
            "max" : [
                0.5175442099571228,
                1.843790054321289,
                0.4565330743789673
            ],
            "min" : [
                -0.5175439119338989,
                0.24140261113643646,
                -0.5426929593086243
            ],
            "type" : "VEC3"
        },
        {
            "bufferView" : 13,
            "componentType" : 5126,
            "count" : 180,
            "type" : "VEC2"
        },
        {
            "bufferView" : 14,
            "componentType" : 5126,
            "count" : 180,
            "type" : "VEC3"
        },
        {
            "bufferView" : 15,
            "componentType" : 5123,
            "count" : 564,
            "type" : "SCALAR"
        },
        {
            "bufferView" : 16,
            "componentType" : 5126,
            "count" : 192,
            "max" : [
                0.467425674200058,
                0.7255613207817078,
                0.3396599590778351
            ],
            "min" : [
                -0.4674268662929535,
                -2.2351741790771484e-08,
                -0.303108811378479
            ],
            "type" : "VEC3"
        },
        {
            "bufferView" : 17,
            "componentType" : 5126,
            "count" : 192,
            "type" : "VEC2"
        },
        {
            "bufferView" : 18,
            "componentType" : 5126,
            "count" : 192,
            "type" : "VEC3"
        },
        {
            "bufferView" : 19,
            "componentType" : 5123,
            "count" : 774,
            "type" : "SCALAR"
        },
        {
            "bufferView" : 20,
            "componentType" : 5126,
            "count" : 739,
            "max" : [
                0.5877280831336975,
                1.6703015565872192,
                0.5602686405181885
            ],
            "min" : [
                -0.5877270102500916,
                0.7000007629394531,
                -0.490499347448349
            ],
            "type" : "VEC3"
        },
        {
            "bufferView" : 21,
            "componentType" : 5126,
            "count" : 739,
            "type" : "VEC2"
        },
        {
            "bufferView" : 22,
            "componentType" : 5126,
            "count" : 739,
            "type" : "VEC3"
        },
        {
            "bufferView" : 23,
            "componentType" : 5123,
            "count" : 2724,
            "type" : "SCALAR"
        },
        {
            "bufferView" : 24,
            "componentType" : 5126,
            "count" : 1405,
            "max" : [
                0.5549558401107788,
                1.7763222455978394,
                0.5324633121490479
            ],
            "min" : [
                -0.5562986731529236,
                0.360984742641449,
                -0.5556281805038452
            ],
            "type" : "VEC3"
        },
        {
            "bufferView" : 25,
            "componentType" : 5126,
            "count" : 1405,
            "type" : "VEC2"
        },
        {
            "bufferView" : 26,
            "componentType" : 5126,
            "count" : 1405,
            "type" : "VEC3"
        },
        {
            "bufferView" : 27,
            "componentType" : 5123,
            "count" : 6822,
            "type" : "SCALAR"
        },
        {
            "bufferView" : 28,
            "componentType" : 5126,
            "count" : 40,
            "max" : [
                0.09846580028533936,
                0.761881947517395,
                -0.3324476182460785
            ],
            "min" : [
                -0.09980867803096771,
                0.6540917754173279,
                -0.45566219091415405
            ],
            "type" : "VEC3"
        },
        {
            "bufferView" : 29,
            "componentType" : 5126,
            "count" : 40,
            "type" : "VEC2"
        },
        {
            "bufferView" : 30,
            "componentType" : 5126,
            "count" : 40,
            "type" : "VEC3"
        },
        {
            "bufferView" : 31,
            "componentType" : 5123,
            "count" : 192,
            "type" : "SCALAR"
        }
    ],
    "bufferViews" : [
        {
            "buffer" : 0,
            "byteLength" : 10728,
            "byteOffset" : 0,
            "target" : 34962
        },
        {
            "buffer" : 0,
            "byteLength" : 7152,
            "byteOffset" : 10728,
            "target" : 34962
        },
        {
            "buffer" : 0,
            "byteLength" : 10728,
            "byteOffset" : 17880,
            "target" : 34962
        },
        {
            "buffer" : 0,
            "byteLength" : 6834,
            "byteOffset" : 28608,
            "target" : 34963
        },
        {
            "buffer" : 0,
            "byteLength" : 288,
            "byteOffset" : 35444,
            "target" : 34962
        },
        {
            "buffer" : 0,
            "byteLength" : 192,
            "byteOffset" : 35732,
            "target" : 34962
        },
        {
            "buffer" : 0,
            "byteLength" : 288,
            "byteOffset" : 35924,
            "target" : 34962
        },
        {
            "buffer" : 0,
            "byteLength" : 204,
            "byteOffset" : 36212,
            "target" : 34963
        },
        {
            "buffer" : 0,
            "byteLength" : 6012,
            "byteOffset" : 36416,
            "target" : 34962
        },
        {
            "buffer" : 0,
            "byteLength" : 4008,
            "byteOffset" : 42428,
            "target" : 34962
        },
        {
            "buffer" : 0,
            "byteLength" : 6012,
            "byteOffset" : 46436,
            "target" : 34962
        },
        {
            "buffer" : 0,
            "byteLength" : 3876,
            "byteOffset" : 52448,
            "target" : 34963
        },
        {
            "buffer" : 0,
            "byteLength" : 2160,
            "byteOffset" : 56324,
            "target" : 34962
        },
        {
            "buffer" : 0,
            "byteLength" : 1440,
            "byteOffset" : 58484,
            "target" : 34962
        },
        {
            "buffer" : 0,
            "byteLength" : 2160,
            "byteOffset" : 59924,
            "target" : 34962
        },
        {
            "buffer" : 0,
            "byteLength" : 1128,
            "byteOffset" : 62084,
            "target" : 34963
        },
        {
            "buffer" : 0,
            "byteLength" : 2304,
            "byteOffset" : 63212,
            "target" : 34962
        },
        {
            "buffer" : 0,
            "byteLength" : 1536,
            "byteOffset" : 65516,
            "target" : 34962
        },
        {
            "buffer" : 0,
            "byteLength" : 2304,
            "byteOffset" : 67052,
            "target" : 34962
        },
        {
            "buffer" : 0,
            "byteLength" : 1548,
            "byteOffset" : 69356,
            "target" : 34963
        },
        {
            "buffer" : 0,
            "byteLength" : 8868,
            "byteOffset" : 70904,
            "target" : 34962
        },
        {
            "buffer" : 0,
            "byteLength" : 5912,
            "byteOffset" : 79772,
            "target" : 34962
        },
        {
            "buffer" : 0,
            "byteLength" : 8868,
            "byteOffset" : 85684,
            "target" : 34962
        },
        {
            "buffer" : 0,
            "byteLength" : 5448,
            "byteOffset" : 94552,
            "target" : 34963
        },
        {
            "buffer" : 0,
            "byteLength" : 16860,
            "byteOffset" : 100000,
            "target" : 34962
        },
        {
            "buffer" : 0,
            "byteLength" : 11240,
            "byteOffset" : 116860,
            "target" : 34962
        },
        {
            "buffer" : 0,
            "byteLength" : 16860,
            "byteOffset" : 128100,
            "target" : 34962
        },
        {
            "buffer" : 0,
            "byteLength" : 13644,
            "byteOffset" : 144960,
            "target" : 34963
        },
        {
            "buffer" : 0,
            "byteLength" : 480,
            "byteOffset" : 158604,
            "target" : 34962
        },
        {
            "buffer" : 0,
            "byteLength" : 320,
            "byteOffset" : 159084,
            "target" : 34962
        },
        {
            "buffer" : 0,
            "byteLength" : 480,
            "byteOffset" : 159404,
            "target" : 34962
        },
        {
            "buffer" : 0,
            "byteLength" : 384,
            "byteOffset" : 159884,
            "target" : 34963
        }
    ],
    "buffers" : [
        {
            "byteLength" : 160268,
            "uri" : "data:application/octet-stream;base64,"
        }
    ]
}
